# xmcd
#
# Track frame offsets:
#	150
#	18077
#	36417
#	55872
#	76197
#	97115
#	118350
#	134037
#	156877
#	175692
#
# Disc length: 2600 seconds
#
# Revision: 43
# Processed by: cddbd v1.5.2PL0 Copyright (c) Steve Scherf et al.
# Submitted via: EZCDAudioConverter 8.0.2.1
#
DISCID=830a260a
DTITLE=周杰伦 - JAY[新索经典复刻盘1]
DYEAR=2000
DGENRE=
TTITLE0=可爱女人
TTITLE1=完美主义
TTITLE2=星晴
TTITLE3=娘子
TTITLE4=斗牛
TTITLE5=黑色幽默
TTITLE6=伊斯坦堡
TTITLE7=印地安老斑鸠
TTITLE8=龙卷风
TTITLE9=反方向的钟
EXTD=
EXTT0=
EXTT1=
EXTT2=
EXTT3=
EXTT4=
EXTT5=
EXTT6=
EXTT7=
EXTT8=
EXTT9=
PLAYORDER=
